<?xml version="1.0" encoding="UTF-8"?>
<svg version="1.1" xmlns="http://www.w3.org/2000/svg" width="500" height="500">
<path d="M0 0 C2.62133428 1.73682983 3.85620823 3.54855131 5.65820312 6.10913086 C9.25862703 10.2738661 11.72429889 11.20532549 17.19335938 11.61303711 C19.72442195 11.64599365 22.25643625 11.63317504 24.78710938 11.57788086 C26.73617187 11.58851563 26.73617187 11.58851563 28.72460938 11.59936523 C31.91435282 11.61109223 35.09819989 11.58197579 38.28710938 11.51538086 C38.6819844 21.40884126 39.07339258 31.30243246 39.46056366 41.19619751 C39.64051226 45.79191716 39.82158544 50.38758636 40.00537109 54.9831543 C40.18320709 59.43104644 40.35790317 63.87905248 40.53056335 68.32714844 C40.5964483 70.01094839 40.6634012 71.69470697 40.73152161 73.37841797 C40.91881424 78.01710489 41.08215786 82.65543041 41.21432495 87.29602051 C41.28826442 89.5506009 41.39547514 91.80222847 41.50317383 94.05541992 C41.55042222 95.49254806 41.59630089 96.92972206 41.640625 98.36694336 C41.69271118 99.62587402 41.74479736 100.88480469 41.79846191 102.18188477 C41.28710938 105.51538086 41.28710938 105.51538086 39.34057617 108.42172241 C35.16298469 111.28615496 32.03642948 111.22053837 27.078125 111.16235352 C25.69919319 111.17549591 25.69919319 111.17549591 24.29240417 111.18890381 C21.25890666 111.21087937 18.22687126 111.19635135 15.19335938 111.17944336 C13.08255738 111.18281201 10.97175727 111.18766505 8.86096191 111.19393921 C4.4391837 111.20130806 0.01791083 111.19060427 -4.40380859 111.16723633 C-10.07025119 111.13874896 -15.73550972 111.15515281 -21.40190887 111.18509865 C-25.75999871 111.20317103 -30.11780806 111.19741377 -34.47590637 111.18445969 C-36.56509033 111.18112553 -38.65429981 111.18521306 -40.74345398 111.19685745 C-43.66429031 111.20956485 -46.58321243 111.19019022 -49.50390625 111.16235352 C-50.36639481 111.17247467 -51.22888336 111.18259583 -52.11750793 111.19302368 C-56.33610445 111.11858177 -58.23055947 110.856121 -61.76635742 108.35827637 C-64.07832914 104.98166096 -64.26340628 103.43326455 -64.06640625 99.38208008 C-64.02104736 98.14182068 -63.97568848 96.90156128 -63.92895508 95.62371826 C-63.87543381 94.62481693 -63.87543381 94.62481693 -63.8208313 93.60573578 C-63.71019861 91.46324787 -63.63853402 89.3224697 -63.5769043 87.17803955 C-63.43402359 82.33347567 -63.24623387 77.49111952 -63.05664062 72.64819336 C-62.98914878 70.87459171 -62.92189229 69.10098108 -62.8548584 67.32736206 C-62.67964298 62.70785504 -62.50127673 58.08847512 -62.32220459 53.46911621 C-62.13929419 48.73591387 -61.95943219 44.00259573 -61.77929688 39.26928711 C-61.42677466 30.01787064 -61.07091637 20.76658586 -60.71289062 11.51538086 C-59.90658203 11.53221924 -59.10027344 11.54905762 -58.26953125 11.56640625 C-54.58292893 11.61696204 -50.89975736 11.59799769 -47.21289062 11.57788086 C-45.94445312 11.6055957 -44.67601562 11.63331055 -43.36914062 11.66186523 C-36.28649566 11.67353619 -36.28649566 11.67353619 -30.17749023 8.53076172 C-28.06953415 6.17354843 -28.06953415 6.17354843 -26.38647461 3.69702148 C-20.12500675 -4.46526543 -8.46845428 -4.12366036 0 0 Z M-25.71289062 7.51538086 C-26.37289062 8.83538086 -27.03289062 10.15538086 -27.71289062 11.51538086 C-16.82289063 11.51538086 -5.93289062 11.51538086 5.28710938 11.51538086 C2.09042394 6.18757179 -0.0489522 3.81081554 -5.71289062 1.51538086 C-13.71056808 -0.06295313 -19.83574675 1.88365617 -25.71289062 7.51538086 Z M-36.71289062 23.51538086 C-37.39437292 25.40717289 -37.39437292 25.40717289 -37.71289062 27.51538086 C-37.05289063 28.17538086 -36.39289063 28.83538086 -35.71289062 29.51538086 C-33.11008494 29.19496689 -33.11008494 29.19496689 -30.71289062 28.51538086 C-30.71289062 26.86538086 -30.71289062 25.21538086 -30.71289062 23.51538086 C-31.70289063 25.00038086 -31.70289063 25.00038086 -32.71289062 26.51538086 C-33.37289062 26.51538086 -34.03289062 26.51538086 -34.71289062 26.51538086 C-35.37289062 25.52538086 -36.03289062 24.53538086 -36.71289062 23.51538086 Z M8.28710938 23.51538086 C8.28710938 25.16538086 8.28710938 26.81538086 8.28710938 28.51538086 C10.68430369 29.19496689 10.68430369 29.19496689 13.28710938 29.51538086 C13.94710937 28.85538086 14.60710937 28.19538086 15.28710938 27.51538086 C14.96859167 25.40717289 14.96859167 25.40717289 14.28710938 23.51538086 C13.29710937 25.00038086 13.29710937 25.00038086 12.28710938 26.51538086 C11.62710938 26.51538086 10.96710938 26.51538086 10.28710938 26.51538086 C9.62710938 25.52538086 8.96710938 24.53538086 8.28710938 23.51538086 Z " fill="#01A277" transform="translate(145.712890625,181.484619140625)"/>
<path d="M0 0 C2.97 0 5.94 0 9 0 C9.33 7.26 9.66 14.52 10 22 C12.97 19.03 12.97 19.03 16 16 C18.7734375 15.4140625 18.7734375 15.4140625 21.375 15.625 C22.24898437 15.67914063 23.12296875 15.73328125 24.0234375 15.7890625 C24.67570313 15.85867187 25.32796875 15.92828125 26 16 C23 20 20 24 17 28 C17.97453125 29.04800781 17.97453125 29.04800781 18.96875 30.1171875 C19.8040625 31.02726562 20.639375 31.93734375 21.5 32.875 C22.3353125 33.77992188 23.170625 34.68484375 24.03125 35.6171875 C26 38 26 38 26 40 C22.24928385 40.41382683 18.73347646 40.62399396 15 40 C12.47275532 37.86362155 11.55330462 35.99948478 10 33 C9.67 35.31 9.34 37.62 9 40 C6.03 40 3.06 40 0 40 C0 34.39 0 28.78 0 23 C-4.94463635 24.33563616 -4.94463635 24.33563616 -6 27 C-6.22950319 29.204364 -6.41075933 31.41392173 -6.5625 33.625 C-6.68818359 35.40777344 -6.68818359 35.40777344 -6.81640625 37.2265625 C-6.87699219 38.14179688 -6.93757813 39.05703125 -7 40 C-9.06093408 40.223293 -11.1238839 40.42802887 -13.1875 40.625 C-14.33605469 40.74101562 -15.48460937 40.85703125 -16.66796875 40.9765625 C-20.05679905 41.00039952 -21.94976948 40.3484085 -25 39 C-26.35085807 39.63040043 -27.68252676 40.30251417 -29 41 C-34.03483202 41.457712 -36.89610799 40.98464873 -41 38 C-41.495 38.99 -41.495 38.99 -42 40 C-45.89499707 40.22656265 -49.7909025 40.42804389 -53.6875 40.625 C-55.34168945 40.72167969 -55.34168945 40.72167969 -57.02929688 40.8203125 C-58.09599609 40.871875 -59.16269531 40.9234375 -60.26171875 40.9765625 C-61.73064575 41.05511475 -61.73064575 41.05511475 -63.22924805 41.13525391 C-66.21858993 40.98932956 -68.2633922 40.14718031 -71 39 C-72.35085807 39.63040043 -73.68252676 40.30251417 -75 41 C-80.03565533 41.45778685 -82.93937667 41.0454675 -87 38 C-88.8125 36.3125 -88.8125 36.3125 -90 35 C-90.28875 35.639375 -90.5775 36.27875 -90.875 36.9375 C-92 39 -92 39 -94 40 C-95.6674606 40.08426094 -97.33825187 40.10725143 -99.0078125 40.09765625 C-99.8961377 40.09515869 -100.78446289 40.09266113 -101.69970703 40.09008789 C-102.83005371 40.08098389 -103.96040039 40.07187988 -105.125 40.0625 C-110.508125 40.0315625 -110.508125 40.0315625 -116 40 C-116 28.45 -116 16.9 -116 5 C-112.7825 4.95875 -109.565 4.9175 -106.25 4.875 C-104.73841309 4.84768799 -104.73841309 4.84768799 -103.19628906 4.81982422 C-102.39416992 4.8148291 -101.59205078 4.80983398 -100.765625 4.8046875 C-99.94868164 4.79421387 -99.13173828 4.78374023 -98.29003906 4.77294922 C-95.71206381 5.02854804 -94.17396681 5.60161996 -92 7 C-89.91866533 10.122002 -89.7262178 10.93266989 -89.75 14.5 C-89.74484375 15.2734375 -89.7396875 16.046875 -89.734375 16.84375 C-90 19 -90 19 -92 22 C-91.01 22.66 -90.02 23.32 -89 24 C-88.7525 23.236875 -88.505 22.47375 -88.25 21.6875 C-86.76756169 18.50025763 -86.10270859 17.6471169 -83 16 C-79.74196246 15.63333861 -76.5231988 15.71822027 -73.25 15.8125 C-72.36183594 15.82603516 -71.47367188 15.83957031 -70.55859375 15.85351562 C-68.372135 15.88878109 -66.18598928 15.94258588 -64 16 C-63.505 23.92 -63.505 23.92 -63 32 C-62.01 32.33 -61.02 32.66 -60 33 C-57.525 28.545 -57.525 28.545 -55 24 C-57.31 23.67 -59.62 23.34 -62 23 C-62 20.69 -62 18.38 -62 16 C-55.4 16 -48.8 16 -42 16 C-42.94954048 20.74770241 -44.10731518 23.25028512 -46.5625 27.3125 C-47.20316406 28.38113281 -47.84382813 29.44976562 -48.50390625 30.55078125 C-48.99761719 31.35902344 -49.49132812 32.16726563 -50 33 C-48.02 33 -46.04 33 -44 33 C-44.04640625 32.41992188 -44.0928125 31.83984375 -44.140625 31.2421875 C-44.40188883 25.58769173 -43.81677597 22.47108042 -40 18 C-36.84685215 15.89790143 -36.13896919 15.7565239 -32.55078125 15.8046875 C-31.27944336 15.81435547 -31.27944336 15.81435547 -29.98242188 15.82421875 C-28.66081055 15.84935547 -28.66081055 15.84935547 -27.3125 15.875 C-25.97348633 15.88853516 -25.97348633 15.88853516 -24.60742188 15.90234375 C-22.40467686 15.92590252 -20.20247412 15.95879671 -18 16 C-17.95101562 17.14339844 -17.90203125 18.28679687 -17.8515625 19.46484375 C-17.77654811 20.95575473 -17.70099972 22.44663892 -17.625 23.9375 C-17.5940625 24.69224609 -17.563125 25.44699219 -17.53125 26.22460938 C-17.4273685 28.15507395 -17.22104386 30.07942081 -17 32 C-16.34 32.33 -15.68 32.66 -15 33 C-15 27.39 -15 21.78 -15 16 C-10 16 -5 16 0 16 C0 10.72 0 5.44 0 0 Z M-107 12 C-107 14.31 -107 16.62 -107 19 C-102.74268432 19.40749675 -102.74268432 19.40749675 -99.125 17.5 C-98.75375 17.005 -98.3825 16.51 -98 16 C-98.33 15.01 -98.66 14.02 -99 13 C-101.70879335 11.64560332 -104.00933268 11.93498549 -107 12 Z M-79.25 23.5625 C-81.10117801 24.88416596 -81.10117801 24.88416596 -81.9375 26.875 C-82.17078257 29.10216824 -82.17078257 29.10216824 -80.875 31.25 C-79.10741219 33.23261411 -79.10741219 33.23261411 -76.4375 33.375 C-73.82471891 33.21896136 -73.82471891 33.21896136 -72 31 C-71.41649495 28.54290625 -71.41649495 28.54290625 -72 26 C-74.56720069 23.78935496 -75.87225155 22.71806289 -79.25 23.5625 Z M-33.25 23.5625 C-35.10117801 24.88416596 -35.10117801 24.88416596 -35.9375 26.875 C-36.17078257 29.10216824 -36.17078257 29.10216824 -34.875 31.25 C-33.10741219 33.23261411 -33.10741219 33.23261411 -30.4375 33.375 C-27.82471891 33.21896136 -27.82471891 33.21896136 -26 31 C-25.41649495 28.54290625 -25.41649495 28.54290625 -26 26 C-28.56720069 23.78935496 -29.87225155 22.71806289 -33.25 23.5625 Z M-107 26 C-107 28.31 -107 30.62 -107 33 C-101.67829506 33.29562367 -101.67829506 33.29562367 -97 31 C-97.49756092 28.24358584 -97.49756092 28.24358584 -99 26 C-101.67058851 25.85884839 -104.32432238 25.95752893 -107 26 Z " fill="#020202" transform="translate(319,237)"/>
<path d="M0 0 C2.97 0 5.94 0 9 0 C9 2.97 9 5.94 9 9 C10.65 9 12.3 9 14 9 C14 11.31 14 13.62 14 16 C12.35 16 10.7 16 9 16 C9 19.3 9 22.6 9 26 C10.65 26 12.3 26 14 26 C14.04241723 28.33294775 14.04092937 30.66702567 14 33 C13 34 13 34 10.25 34.25 C6.58163711 33.96781824 4.88586235 33.2445596 2 31 C-0.12054026 27.72413092 -0.21670998 25.10181902 -0.125 21.25 C-0.10695313 20.26515625 -0.08890625 19.2803125 -0.0703125 18.265625 C-0.04710937 17.51796875 -0.02390625 16.7703125 0 16 C-3.07477145 16.97335628 -3.07477145 16.97335628 -6 19 C-6.94310139 22.40163148 -6.94310139 22.40163148 -6.875 26.1875 C-6.91367187 27.45980469 -6.95234375 28.73210937 -6.9921875 30.04296875 C-6.99476563 31.01878906 -6.99734375 31.99460937 -7 33 C-9.2277397 33.22307542 -11.45731364 33.42788178 -13.6875 33.625 C-14.92886719 33.74101562 -16.17023438 33.85703125 -17.44921875 33.9765625 C-20.98298837 33.99988771 -22.80105663 33.28854111 -26 32 C-26.99 32.66 -27.98 33.32 -29 34 C-33.12902729 34.46743705 -35.48551526 34.24734843 -39.25 32.4375 C-42.59862121 29.46940392 -43.7632719 27.292174 -45 23 C-45 16.91131268 -43.08722332 14.1869117 -39 10 C-36.62098825 8.81049412 -35.14482122 8.89885813 -32.5 8.9375 C-31.7059375 8.94652344 -30.911875 8.95554688 -30.09375 8.96484375 C-29.4028125 8.97644531 -28.711875 8.98804688 -28 9 C-27.34 9 -26.68 9 -26 9 C-23.36 9 -20.72 9 -18 9 C-18 14.61 -18 20.22 -18 26 C-17.34 26 -16.68 26 -16 26 C-16 20.39 -16 14.78 -16 9 C-10.72 9 -5.44 9 0 9 C0 6.03 0 3.06 0 0 Z M-36 19 C-36.50014953 21.54258463 -36.50014953 21.54258463 -36 24 C-35.34 24.66 -34.68 25.32 -34 26 C-30.40320934 25.67673447 -30.40320934 25.67673447 -27 25 C-26.14025199 22.70705512 -26.14025199 22.70705512 -26 20 C-27.70881764 17.62419982 -27.70881764 17.62419982 -30 16 C-32.8823175 16 -33.95575462 17.02389614 -36 19 Z " fill="#020202" transform="translate(386,244)"/>
<path d="M0 0 C2.62133428 1.73682983 3.85620823 3.54855131 5.65820312 6.10913086 C9.25862703 10.2738661 11.72429889 11.20532549 17.19335938 11.61303711 C19.72442195 11.64599365 22.25643625 11.63317504 24.78710938 11.57788086 C26.73617187 11.58851563 26.73617187 11.58851563 28.72460938 11.59936523 C31.91435282 11.61109223 35.09819989 11.58197579 38.28710938 11.51538086 C39.14431542 27.52643944 39.41894113 43.48261155 39.28710938 59.51538086 C38.95710938 59.51538086 38.62710938 59.51538086 38.28710938 59.51538086 C37.19329842 49.80260797 36.96748223 40.08938699 36.72460938 30.32788086 C36.68131149 28.6918046 36.63769407 27.05573676 36.59375 25.41967773 C36.48785596 21.45166618 36.38627415 17.48356605 36.28710938 13.51538086 C34.30710937 14.50538086 32.32710938 15.49538086 30.28710938 16.51538086 C29.79210937 15.03038086 29.79210937 15.03038086 29.28710938 13.51538086 C24.33710938 13.51538086 19.38710937 13.51538086 14.28710938 13.51538086 C13.16584156 17.31326784 13.16584156 17.31326784 13.28710938 20.51538086 C14.60710937 20.51538086 15.92710937 20.51538086 17.28710938 20.51538086 C17.24585938 21.27850586 17.20460938 22.04163086 17.16210938 22.82788086 C17.06630113 25.74256502 17.06630113 25.74256502 19.28710938 28.51538086 C18.91210938 31.20288086 18.91210938 31.20288086 18.28710938 33.51538086 C17.75085938 33.18538086 17.21460938 32.85538086 16.66210938 32.51538086 C14.23639925 31.30463933 14.23639925 31.30463933 11.16210938 31.57788086 C10.21335938 31.55725586 9.26460937 31.53663086 8.28710938 31.51538086 C7.62710938 30.52538086 6.96710938 29.53538086 6.28710938 28.51538086 C6.94710937 27.19538086 7.60710937 25.87538086 8.28710938 24.51538086 C8.78210938 26.49538086 8.78210938 26.49538086 9.28710938 28.51538086 C10.93710938 28.18538086 12.58710938 27.85538086 14.28710938 27.51538086 C14.28710938 26.52538086 14.28710938 25.53538086 14.28710938 24.51538086 C13.29710937 26.00038086 13.29710937 26.00038086 12.28710938 27.51538086 C11.29710937 27.18538086 10.30710938 26.85538086 9.28710938 26.51538086 C8.33789062 23.35522461 8.33789062 23.35522461 7.59960938 19.45288086 C7.34824219 18.1625293 7.096875 16.87217773 6.83789062 15.54272461 C6.65613281 14.54370117 6.474375 13.54467773 6.28710938 12.51538086 C3.64710938 12.51538086 1.00710937 12.51538086 -1.71289062 12.51538086 C-1.71289062 12.18538086 -1.71289062 11.85538086 -1.71289062 11.51538086 C0.26710937 11.18538086 2.24710938 10.85538086 4.28710938 10.51538086 C-0.54860586 5.40333904 -3.80771295 2.39135971 -10.96289062 1.95288086 C-17.09958766 2.09424109 -21.20197724 4.46604931 -25.71289062 8.51538086 C-26.04289062 9.17538086 -26.37289062 9.83538086 -26.71289062 10.51538086 C-21.10289063 10.84538086 -15.49289063 11.17538086 -9.71289062 11.51538086 C-9.71289062 11.84538086 -9.71289062 12.17538086 -9.71289062 12.51538086 C-15.98289063 12.84538086 -22.25289062 13.17538086 -28.71289062 13.51538086 C-29.04289062 14.50538086 -29.37289062 15.49538086 -29.71289062 16.51538086 C-30.04289062 15.52538086 -30.37289062 14.53538086 -30.71289062 13.51538086 C-31.37289062 13.51538086 -32.03289062 13.51538086 -32.71289062 13.51538086 C-33.04289062 15.49538086 -33.37289062 17.47538086 -33.71289062 19.51538086 C-33.05289063 19.51538086 -32.39289063 19.51538086 -31.71289062 19.51538086 C-31.38289063 18.85538086 -31.05289063 18.19538086 -30.71289062 17.51538086 C-30.71289062 18.50538086 -30.71289062 19.49538086 -30.71289062 20.51538086 C-29.39289063 20.18538086 -28.07289062 19.85538086 -26.71289062 19.51538086 C-26.71289062 20.83538086 -26.71289062 22.15538086 -26.71289062 23.51538086 C-27.70289062 23.18538086 -28.69289063 22.85538086 -29.71289062 22.51538086 C-29.71289062 24.82538086 -29.71289062 27.13538086 -29.71289062 29.51538086 C-31.71289062 28.51538086 -31.71289062 28.51538086 -32.71289062 27.51538086 C-33.70289062 27.18538086 -34.69289063 26.85538086 -35.71289062 26.51538086 C-36.71289062 22.51538086 -36.71289062 22.51538086 -34.71289062 14.51538086 C-40.32289062 14.18538086 -45.93289062 13.85538086 -51.71289062 13.51538086 C-51.71289062 12.85538086 -51.71289062 12.19538086 -51.71289062 11.51538086 C-49.79476562 11.5637207 -49.79476562 11.5637207 -47.83789062 11.61303711 C-38.42280623 11.94399289 -38.42280623 11.94399289 -29.98632812 8.58569336 C-28.73437872 7.01431653 -27.53269883 5.40136259 -26.38867188 3.74975586 C-20.20560687 -4.49433081 -8.46242418 -4.12072403 0 0 Z " fill="#139C7A" transform="translate(145.712890625,181.484619140625)"/>
<path d="M0 0 C1.98 0 3.96 0 6 0 C5.34 1.65 4.68 3.3 4 5 C3.34 5 2.68 5 2 5 C2.01160156 5.71285156 2.02320312 6.42570313 2.03515625 7.16015625 C2.08606026 12.56325366 1.94608271 17.67828475 1 23 C0.67 23 0.34 23 0 23 C0 15.41 0 7.82 0 0 Z " fill="#189677" transform="translate(85,193)"/>
<path d="M0 0 C6.19887485 -0.37952295 10.4477112 0.1647887 16 3 C15.01 3.495 15.01 3.495 14 4 C14 4.66 14 5.32 14 6 C9.38 5.34 4.76 4.68 0 4 C0 3.67 0 3.34 0 3 C2.64 2.67 5.28 2.34 8 2 C5.36 1.67 2.72 1.34 0 1 C0 0.67 0 0.34 0 0 Z " fill="#1E9173" transform="translate(130,179)"/>
<path d="M0 0 C2 1 2 1 3.1875 4.3125 C3.90649268 7.57562063 4.20286847 8.99282882 3 12 C1.03698408 8.49461443 0.04097612 4.86648272 -1 1 C-0.67 0.67 -0.34 0.34 0 0 Z " fill="#02A17A" transform="translate(154,193)"/>
<path d="M0 0 C0.4125 0.45375 0.825 0.9075 1.25 1.375 C3.06408095 3.05950374 4.75285627 3.99265971 7 5 C5.02 5.33 3.04 5.66 1 6 C0.34 4.35 -0.32 2.7 -1 1 C-0.67 0.67 -0.34 0.34 0 0 Z " fill="#189879" transform="translate(107,207)"/>
<path d="M0 0 C0.66 0.66 1.32 1.32 2 2 C1.34 3.32 0.68 4.64 0 6 C-0.99 5.67 -1.98 5.34 -3 5 C-3 4.01 -3 3.02 -3 2 C-2.01 1.34 -1.02 0.68 0 0 Z " fill="#198C74" transform="translate(158,203)"/>
</svg>
