<?xml version="1.0" encoding="UTF-8"?>
<svg version="1.1" xmlns="http://www.w3.org/2000/svg" width="500" height="500">
<path d="M0 0 C2.5546875 1.875 2.5546875 1.875 3.82785034 3.77294922 C6.38677052 7.49149438 8.25675284 9.57148648 12.74734497 10.62158203 C16.5155607 10.8856723 20.2153469 10.93219597 23.9921875 10.875 C25.29607422 10.88660156 26.59996094 10.89820313 27.94335938 10.91015625 C31.14873673 10.93363887 34.34967561 10.9208177 37.5546875 10.875 C37.94956252 20.7684604 38.3409707 30.6620516 38.72814178 40.55581665 C38.90809039 45.1515363 39.08916357 49.7472055 39.27294922 54.34277344 C39.45078521 58.79066558 39.6254813 63.23867163 39.79814148 67.68676758 C39.86402643 69.37056754 39.93097932 71.05432611 39.99909973 72.73803711 C40.18639236 77.37672403 40.34973599 82.01504955 40.48190308 86.65563965 C40.55584255 88.91022004 40.66305327 91.16184761 40.77075195 93.41503906 C40.81800034 94.8521672 40.86387902 96.2893412 40.90820312 97.7265625 C40.96028931 98.98549316 41.01237549 100.24442383 41.06604004 101.54150391 C40.5546875 104.875 40.5546875 104.875 38.6081543 107.78134155 C34.43056282 110.64577411 31.30400761 110.58015751 26.34570312 110.52197266 C24.96677132 110.53511505 24.96677132 110.53511505 23.5599823 110.54852295 C20.52648479 110.57049851 17.49444938 110.55597049 14.4609375 110.5390625 C12.3501355 110.54243116 10.2393354 110.54728419 8.12854004 110.55355835 C3.70676183 110.5609272 -0.71451104 110.55022341 -5.13623047 110.52685547 C-10.80267307 110.4983681 -16.46793159 110.51477195 -22.13433075 110.54471779 C-26.49242059 110.56279017 -30.85022994 110.55703291 -35.20832825 110.54407883 C-37.29751221 110.54074467 -39.38672168 110.5448322 -41.47587585 110.55647659 C-44.39671218 110.56918399 -47.3156343 110.54980936 -50.23632812 110.52197266 C-51.09881668 110.53209381 -51.96130524 110.54221497 -52.84992981 110.55264282 C-57.09032577 110.47781624 -58.95884489 110.22371632 -62.4987793 107.68617249 C-64.73351395 104.45878106 -65.00518002 103.12073947 -64.79882812 99.24926758 C-64.73078979 97.52578598 -64.73078979 97.52578598 -64.66137695 95.76748657 C-64.59007568 94.482966 -64.51877441 93.19844543 -64.4453125 91.875 C-64.39573598 90.44621651 -64.35058364 89.01727422 -64.30932617 87.58822632 C-64.16523394 82.68651382 -63.97784031 77.786883 -63.7890625 72.88671875 C-63.72159006 71.08926676 -63.6543331 69.29180668 -63.58728027 67.49433899 C-63.41186929 62.80742259 -63.2335687 58.12062062 -63.05462646 53.43383789 C-62.87188139 48.63369309 -62.6919241 43.83344382 -62.51171875 39.03320312 C-62.15894879 29.64703225 -61.80312018 20.26098009 -61.4453125 10.875 C-60.63900391 10.89183838 -59.83269531 10.90867676 -59.00195312 10.92602539 C-55.31535081 10.97658118 -51.63217923 10.95761683 -47.9453125 10.9375 C-46.676875 10.96521484 -45.4084375 10.99292969 -44.1015625 11.02148438 C-37.01891753 11.03315533 -37.01891753 11.03315533 -30.90991211 7.89038086 C-28.80195603 5.53316757 -28.80195603 5.53316757 -27.11889648 3.05664062 C-20.32138392 -5.80442025 -8.83858488 -4.28537449 0 0 Z M-26.4453125 6.875 C-27.1053125 8.195 -27.7653125 9.515 -28.4453125 10.875 C-17.5553125 10.875 -6.6653125 10.875 4.5546875 10.875 C1.35800206 5.54719093 -0.78137407 3.17043468 -6.4453125 0.875 C-14.44298996 -0.70333399 -20.56816862 1.24327532 -26.4453125 6.875 Z M-37.4453125 22.875 C-38.1267948 24.76679203 -38.1267948 24.76679203 -38.4453125 26.875 C-37.7853125 27.535 -37.1253125 28.195 -36.4453125 28.875 C-33.84250682 28.55458603 -33.84250682 28.55458603 -31.4453125 27.875 C-31.4453125 26.225 -31.4453125 24.575 -31.4453125 22.875 C-32.4353125 24.36 -32.4353125 24.36 -33.4453125 25.875 C-34.1053125 25.875 -34.7653125 25.875 -35.4453125 25.875 C-36.1053125 24.885 -36.7653125 23.895 -37.4453125 22.875 Z M7.5546875 22.875 C7.5546875 24.525 7.5546875 26.175 7.5546875 27.875 C9.95188182 28.55458603 9.95188182 28.55458603 12.5546875 28.875 C13.2146875 28.215 13.8746875 27.555 14.5546875 26.875 C14.2361698 24.76679203 14.2361698 24.76679203 13.5546875 22.875 C12.5646875 24.36 12.5646875 24.36 11.5546875 25.875 C10.8946875 25.875 10.2346875 25.875 9.5546875 25.875 C8.8946875 24.885 8.2346875 23.895 7.5546875 22.875 Z " fill="#02A278" transform="translate(146.4453125,182.125)"/>
<path d="M0 0 C2.5546875 1.875 2.5546875 1.875 3.90942383 3.8125 C6.50804851 7.48558364 8.24619656 9.56995303 12.73828125 10.6171875 C16.51007855 10.88544033 20.21150988 10.93225408 23.9921875 10.875 C25.29607422 10.88660156 26.59996094 10.89820313 27.94335938 10.91015625 C31.14873673 10.93363887 34.34967561 10.9208177 37.5546875 10.875 C37.5546875 14.505 37.5546875 18.135 37.5546875 21.875 C37.2246875 21.875 36.8946875 21.875 36.5546875 21.875 C36.5546875 18.575 36.5546875 15.275 36.5546875 11.875 C27.9746875 11.875 19.3946875 11.875 10.5546875 11.875 C11.0496875 14.35 11.0496875 14.35 11.5546875 16.875 C9.5546875 14.875 9.5546875 14.875 7.5546875 10.875 C8.5446875 14.505 9.5346875 18.135 10.5546875 21.875 C11.2146875 20.555 11.8746875 19.235 12.5546875 17.875 C13.36436188 20.78982778 13.77314743 22.33613217 12.6171875 25.1875 C12.2665625 25.744375 11.9159375 26.30125 11.5546875 26.875 C10.0696875 26.38 10.0696875 26.38 8.5546875 25.875 C7.5646875 21.255 6.5746875 16.635 5.5546875 11.875 C-5.9953125 11.875 -17.5453125 11.875 -29.4453125 11.875 C-30.4353125 16.495 -31.4253125 21.115 -32.4453125 25.875 C-33.7653125 25.875 -35.0853125 25.875 -36.4453125 25.875 C-36.7753125 25.215 -37.1053125 24.555 -37.4453125 23.875 C-38.1053125 24.865 -38.7653125 25.855 -39.4453125 26.875 C-39.4453125 25.225 -39.4453125 23.575 -39.4453125 21.875 C-38.4553125 21.875 -37.4653125 21.875 -36.4453125 21.875 C-36.22875 19.956875 -36.22875 19.956875 -36.0078125 18 C-35.73888504 15.61807106 -35.52304904 14.03047309 -34.4453125 11.875 C-43.0253125 11.875 -51.6053125 11.875 -60.4453125 11.875 C-60.4453125 16.495 -60.4453125 21.115 -60.4453125 25.875 C-60.7753125 25.875 -61.1053125 25.875 -61.4453125 25.875 C-61.4453125 20.925 -61.4453125 15.975 -61.4453125 10.875 C-59.516875 10.90722656 -57.5884375 10.93945312 -55.6015625 10.97265625 C-53.04946951 10.96327356 -50.49738475 10.951425 -47.9453125 10.9375 C-46.676875 10.96521484 -45.4084375 10.99292969 -44.1015625 11.02148438 C-37.01891753 11.03315533 -37.01891753 11.03315533 -30.90991211 7.89038086 C-28.80195603 5.53316757 -28.80195603 5.53316757 -27.11889648 3.05664062 C-20.32138392 -5.80442025 -8.83858488 -4.28537449 0 0 Z M-26.4453125 6.875 C-27.1053125 8.195 -27.7653125 9.515 -28.4453125 10.875 C-17.5553125 10.875 -6.6653125 10.875 4.5546875 10.875 C1.35800206 5.54719093 -0.78137407 3.17043468 -6.4453125 0.875 C-14.44298996 -0.70333399 -20.56816862 1.24327532 -26.4453125 6.875 Z " fill="#50B096" transform="translate(146.4453125,182.125)"/>
<path d="M0 0 C0.33 0 0.66 0 1 0 C1.33 23.76 1.66 47.52 2 72 C51.005 71.505 51.005 71.505 101 71 C97.58216359 74.41783641 96.29680727 74.36261533 91.65345764 74.42880249 C90.78377853 74.42587189 89.91409943 74.42294128 89.01806641 74.41992188 C88.09907059 74.42839142 87.18007477 74.43686096 86.23323059 74.44558716 C83.1892012 74.46902436 80.14567537 74.46997762 77.1015625 74.46875 C74.98790279 74.47584814 72.87424503 74.48354662 70.7605896 74.49182129 C66.32699226 74.50528201 61.89357302 74.50682798 57.45996094 74.50097656 C51.77783582 74.49508277 46.09656582 74.52565184 40.41460609 74.56609344 C36.04797764 74.59194335 31.68155572 74.59485023 27.3148613 74.59120178 C25.22007475 74.59289595 23.12527895 74.60256685 21.03056717 74.62034607 C18.10003744 74.64247909 15.17124639 74.63286202 12.24072266 74.61523438 C10.94227669 74.63512924 10.94227669 74.63512924 9.61759949 74.65542603 C5.38046867 74.59619895 3.49241532 74.34889068 -0.05630493 71.83451843 C-2.33176222 68.51618639 -2.54921936 67.00836462 -2.33984375 63.0324707 C-2.29456543 61.88549713 -2.24928711 60.73852356 -2.20263672 59.55679321 C-2.10233154 57.79618057 -2.10233154 57.79618057 -2 56 C-1.93538218 53.79461252 -1.87416706 51.58912264 -1.81640625 49.38354492 C-1.73415165 47.08243319 -1.64943855 44.78140827 -1.5625 42.48046875 C-1.51810791 41.25588455 -1.47371582 40.03130035 -1.42797852 38.76960754 C-1.28752175 34.90882071 -1.14381868 31.04816291 -1 27.1875 C-0.90342992 24.54883602 -0.8070738 21.9101642 -0.7109375 19.27148438 C-0.47642899 12.84756364 -0.23926462 6.42374525 0 0 Z " fill="#4CB79B" transform="translate(84,218)"/>
<path d="M0 0 C7.41541838 -0.59801761 12.92144189 0.53867295 19 5 C19.67059448 5.9590625 19.67059448 5.9590625 20.35473633 6.9375 C22.95336101 10.61058364 24.69150906 12.69495303 29.18359375 13.7421875 C32.95539105 14.01044033 36.65682238 14.05725408 40.4375 14 C41.74138672 14.01160156 43.04527344 14.02320313 44.38867188 14.03515625 C47.59404923 14.05863887 50.79498811 14.0458177 54 14 C54 17.63 54 21.26 54 25 C53.67 25 53.34 25 53 25 C53 21.7 53 18.4 53 15 C44.42 15 35.84 15 27 15 C27.33 16.65 27.66 18.3 28 20 C26 18 26 18 24 14 C24.99 17.63 25.98 21.26 27 25 C27.66 23.68 28.32 22.36 29 21 C29.80967438 23.91482778 30.21845993 25.46113217 29.0625 28.3125 C28.711875 28.869375 28.36125 29.42625 28 30 C27.01 29.67 26.02 29.34 25 29 C24.2265625 26.55859375 24.2265625 26.55859375 23.625 23.4375 C22.03337017 16.53770262 19.93137513 10.60815626 13.8125 6.5625 C9.46796359 4.38061999 4.78897751 4.19271539 0 4 C0 3.67 0 3.34 0 3 C3.465 2.505 3.465 2.505 7 2 C4.69 1.67 2.38 1.34 0 1 C0 0.67 0 0.34 0 0 Z " fill="#69C7B0" transform="translate(130,179)"/>
<path d="M0 0 C3 2 3 2 4 4 C4 3.34 4 2.68 4 2 C12.58 2 21.16 2 30 2 C30 5.3 30 8.6 30 12 C29.67 12 29.34 12 29 12 C28.67 9.03 28.34 6.06 28 3 C20.74 3 13.48 3 6 3 C6.33 3.66 6.66 4.32 7 5 C7.039992 6.99960012 7.04346799 9.00047242 7 11 C7.99 11 8.98 11 10 11 C10.33 13.64 10.66 16.28 11 19 C6.92630576 21.03684712 4.41062136 21.0257259 0 20 C-0.33 18.02 -0.66 16.04 -1 14 C-0.34 14 0.32 14 1 14 C1.33 15.32 1.66 16.64 2 18 C3.65 17.67 5.3 17.34 7 17 C6.67 15.35 6.34 13.7 6 12 C5.01 12.33 4.02 12.66 3 13 C2.49487756 11.39743892 1.99608373 9.79288208 1.5 8.1875 C1.2215625 7.29417969 0.943125 6.40085938 0.65625 5.48046875 C0 3 0 3 0 0 Z " fill="#129C78" transform="translate(153,192)"/>
<path d="M0 0 C1.45047396 2.90094791 0.45356803 4.55972596 -0.4375 7.625 C-0.86869141 9.12933594 -0.86869141 9.12933594 -1.30859375 10.6640625 C-1.53675781 11.43492187 -1.76492187 12.20578125 -2 13 C-1.34 13 -0.68 13 0 13 C0.12375 11.9275 0.2475 10.855 0.375 9.75 C0.89643936 6.62136385 1.40088254 4.66519576 3 2 C4.49341969 4.98683937 3.40648676 6.95160978 2.5625 10.125 C2.13130859 11.76855469 2.13130859 11.76855469 1.69140625 13.4453125 C1.46324219 14.28835937 1.23507813 15.13140625 1 16 C-0.32 16 -1.64 16 -3 16 C-3.33 15.34 -3.66 14.68 -4 14 C-4.99 15.485 -4.99 15.485 -6 17 C-6 15.35 -6 13.7 -6 12 C-5.01 12 -4.02 12 -3 12 C-2.855625 10.72125 -2.71125 9.4425 -2.5625 8.125 C-2.29357254 5.74307106 -2.07773654 4.15547309 -1 2 C-9.58 2 -18.16 2 -27 2 C-27 6.62 -27 11.24 -27 16 C-27.33 16 -27.66 16 -28 16 C-28 11.05 -28 6.1 -28 1 C-18.76 0.67 -9.52 0.34 0 0 Z " fill="#69C8B0" transform="translate(113,192)"/>
<path d="M0 0 C7.57491763 -0.61088045 12.59070951 0.89296367 19 5 C21.88653342 7.47970657 22.48877834 9.21695968 23 13 C18.23799472 10.17255937 18.23799472 10.17255937 16.23828125 8.72265625 C10.93119351 5.00877132 6.4330686 4.14500769 0 4 C0 3.67 0 3.34 0 3 C3.465 2.505 3.465 2.505 7 2 C4.69 1.67 2.38 1.34 0 1 C0 0.67 0 0.34 0 0 Z " fill="#45AE8F" transform="translate(130,179)"/>
<path d="M0 0 C0.33 0 0.66 0 1 0 C1.33 1.98 1.66 3.96 2 6 C2.99 6.33 3.98 6.66 5 7 C5 7.66 5 8.32 5 9 C4.34 9 3.68 9 3 9 C3.33 10.32 3.66 11.64 4 13 C0.37 13.33 -3.26 13.66 -7 14 C-6.67 12.68 -6.34 11.36 -6 10 C-4.35 10.33 -2.7 10.66 -1 11 C-1.020625 9.741875 -1.04125 8.48375 -1.0625 7.1875 C-1.10886083 4.35948913 -0.91692961 2.75078884 0 0 Z " fill="#34AE8D" transform="translate(115,199)"/>
<path d="M0 0 C11.55 0 23.1 0 35 0 C35 0.33 35 0.66 35 1 C34.08710205 1.02505615 33.1742041 1.0501123 32.23364258 1.07592773 C28.83232369 1.17131607 25.43116061 1.27053402 22.0300293 1.37231445 C20.56067232 1.41550705 19.0912702 1.45719256 17.62182617 1.49731445 C15.50425645 1.55539882 13.38691063 1.61898098 11.26953125 1.68359375 C9.36071167 1.73858032 9.36071167 1.73858032 7.41333008 1.79467773 C4.49741104 1.9700792 1.83732095 2.33392883 -1 3 C-0.67 2.01 -0.34 1.02 0 0 Z " fill="#129A75" transform="translate(117,194)"/>
<path d="M0 0 C0.66 0 1.32 0 2 0 C2 1.65 2 3.3 2 5 C2.66 5.33 3.32 5.66 4 6 C-0.07369424 8.03684712 -2.58937864 8.0257259 -7 7 C-7.33 5.02 -7.66 3.04 -8 1 C-7.34 1 -6.68 1 -6 1 C-5.67 2.32 -5.34 3.64 -5 5 C-3.35 4.67 -1.7 4.34 0 4 C0 2.68 0 1.36 0 0 Z " fill="#49B99D" transform="translate(160,205)"/>
<path d="M0 0 C9.41002278 -0.3690205 9.41002278 -0.3690205 14 2 C13.01 2.495 13.01 2.495 12 3 C12 3.66 12 4.32 12 5 C8.04 4.67 4.08 4.34 0 4 C0 3.67 0 3.34 0 3 C3.465 2.505 3.465 2.505 7 2 C4.69 1.67 2.38 1.34 0 1 C0 0.67 0 0.34 0 0 Z " fill="#73C6AF" transform="translate(130,179)"/>
<path d="M0 0 C0.66 0.66 1.32 1.32 2 2 C1.01 5.3 0.02 8.6 -1 12 C-1.66 12 -2.32 12 -3 12 C-2.14285714 3.42857143 -2.14285714 3.42857143 0 0 Z " fill="#129975" transform="translate(114,193)"/>
<path d="M0 0 C2.35953094 2.35953094 2.49141413 3.77895617 3 7 C1.35 7 -0.3 7 -2 7 C-2.33 6.01 -2.66 5.02 -3 4 C-1.5625 1.8125 -1.5625 1.8125 0 0 Z " fill="#48B596" transform="translate(117,187)"/>
<path d="M0 0 C1.62463842 -0.05395478 3.24978541 -0.09277195 4.875 -0.125 C5.77992188 -0.14820313 6.68484375 -0.17140625 7.6171875 -0.1953125 C10 0 10 0 12 2 C6.06 2.495 6.06 2.495 0 3 C0 2.01 0 1.02 0 0 Z " fill="#219B78" transform="translate(127,180)"/>
<path d="M0 0 C1.125 1.6875 1.125 1.6875 2 4 C1.125 6.75 1.125 6.75 0 9 C-0.66 9 -1.32 9 -2 9 C-1.41196203 5.97580475 -0.77321882 2.98241547 0 0 Z " fill="#60C3A9" transform="translate(158,200)"/>
</svg>
